<svg width="48" height="48" viewBox="0 0 48 48" fill="none" xmlns="http://www.w3.org/2000/svg">
<path fill-rule="evenodd" clip-rule="evenodd" d="M39.4199 5.67405C40.8859 5.96805 42.0319 7.11405 42.3259 8.58005C42.5358 9.63046 42.5058 10.7147 42.2381 11.7519C41.9704 12.7891 41.472 13.7524 40.7799 14.57L35.2779 21.074L39.1659 35.336C39.282 35.7613 39.2835 36.2097 39.1704 36.6357C39.0574 37.0618 38.8336 37.4504 38.5219 37.7621L35.9179 40.3661C35.6968 40.5871 35.4274 40.7538 35.1309 40.853C34.8344 40.9522 34.5189 40.9812 34.2093 40.9378C33.8997 40.8944 33.6044 40.7797 33.3466 40.6027C33.0889 40.4257 32.8757 40.1914 32.7239 39.918L26.8399 29.326L21.1239 34.0881L21.5439 36.194C21.6252 36.5978 21.6055 37.0153 21.4865 37.4096C21.3675 37.8039 21.153 38.1627 20.8619 38.454L17.5339 41.78C17.3075 42.0061 17.0307 42.1752 16.7261 42.2733C16.4216 42.3714 16.0981 42.3958 15.7824 42.3444C15.4666 42.2931 15.1675 42.1674 14.9098 41.9779C14.652 41.7883 14.443 41.5402 14.2999 41.2541L11.7799 36.2201L6.74792 33.7001C6.46176 33.557 6.21369 33.3479 6.02412 33.0902C5.83455 32.8325 5.70891 32.5334 5.65755 32.2176C5.60619 31.9018 5.63057 31.5784 5.72869 31.2738C5.82681 30.9693 5.99586 30.6925 6.22192 30.466L9.54992 27.1381C9.8411 26.8473 10.1995 26.633 10.5934 26.514C10.9873 26.395 11.4045 26.3751 11.8079 26.456L13.9139 26.876L18.6759 21.162L8.08392 15.276C7.81059 15.1243 7.57622 14.9111 7.39927 14.6533C7.22232 14.3956 7.10762 14.1003 7.06419 13.7907C7.02076 13.481 7.04979 13.1656 7.14901 12.8691C7.24822 12.5726 7.4149 12.3032 7.63592 12.082L10.2399 9.47805C10.5516 9.16636 10.9402 8.94262 11.3662 8.82952C11.7923 8.71642 12.2407 8.71798 12.6659 8.83405L26.9259 12.722L33.4319 7.22005C34.2495 6.52802 35.2129 6.02956 36.2501 5.76186C37.2873 5.49417 38.3715 5.46415 39.4219 5.67405H39.4199ZM38.4359 9.56405C38.0052 9.50652 37.5671 9.5398 37.15 9.66173C36.7329 9.78367 36.3459 9.99156 36.0139 10.272L28.7139 16.45C28.4637 16.6615 28.1659 16.809 27.846 16.8797C27.5262 16.9504 27.1939 16.9423 26.8779 16.856L12.4519 12.92L12.3179 13.052L22.7079 18.824C22.9678 18.9684 23.1927 19.1684 23.3664 19.4097C23.5401 19.651 23.6584 19.9277 23.7128 20.22C23.7672 20.5122 23.7565 20.8129 23.6813 21.1006C23.6062 21.3883 23.4684 21.6558 23.2779 21.8841L16.2299 30.34C15.9972 30.6194 15.6934 30.8308 15.3505 30.9519C15.0077 31.073 14.6385 31.0993 14.2819 31.028L11.8079 30.534L10.9919 31.35L14.1059 32.9081C14.5318 33.1209 14.877 33.4662 15.0899 33.892L16.6499 37.0061L17.4639 36.19L16.9699 33.716C16.8987 33.3595 16.925 32.9903 17.046 32.6474C17.1671 32.3046 17.3785 32.0008 17.6579 31.768L26.1159 24.72C26.3442 24.5296 26.6117 24.3918 26.8994 24.3166C27.187 24.2415 27.4877 24.2307 27.78 24.2852C28.0723 24.3396 28.349 24.4579 28.5903 24.6316C28.8316 24.8053 29.0315 25.0301 29.1759 25.2901L34.9459 35.68L35.0779 35.5461L31.1439 21.12C31.0579 20.8039 31.0501 20.4715 31.1212 20.1517C31.1923 19.8318 31.3401 19.534 31.5519 19.284L37.7279 11.984C38.2979 11.31 38.5519 10.432 38.4359 9.56405Z" fill="black"/>
</svg>
