<svg width="48" height="48" viewBox="0 0 48 48" fill="none" xmlns="http://www.w3.org/2000/svg">
<path fill-rule="evenodd" clip-rule="evenodd" d="M34 8C35.526 8 36.788 8.868 37.712 9.78C38.674 10.726 39.556 11.998 40.34 13.4C41.914 16.212 43.284 19.886 44.19 23.516C45.09 27.118 45.588 30.88 45.27 33.838C44.95 36.808 43.42 40 40 40C37.048 40 34.696 38.48 32.772 36.938L32.07 36.36L31.086 35.53L30.198 34.794C28.16 33.144 26.35 32 24 32C21.65 32 19.84 33.144 17.802 34.794L16.914 35.53L15.93 36.36L15.23 36.938C13.302 38.48 10.95 40 8 40C4.578 40 3.048 36.808 2.73 33.838C2.414 30.878 2.91 27.118 3.81 23.514C4.716 19.886 6.086 16.214 7.66 13.398C8.444 11.998 9.326 10.726 10.288 9.778C11.212 8.868 12.474 8 14 8C15.03 8 16.036 8.246 17.026 8.54L18.21 8.902C18.408 8.962 18.604 9.022 18.8 9.076C20.53 9.572 22.3 10 24 10C25.7 10 27.47 9.572 29.2 9.076L30.97 8.542C31.966 8.248 32.98 8 34 8ZM34 12C33.234 12 32.434 12.232 31.658 12.486L30.742 12.788C30.5954 12.8357 30.448 12.881 30.3 12.924C28.53 13.428 26.3 14 24 14C21.7 14 19.47 13.428 17.7 12.924L17.26 12.788L16.342 12.486C15.566 12.23 14.766 12 14 12C13.164 12.156 12.414 13.17 11.848 14.11L11.532 14.66L11.152 15.352C9.788 17.788 8.532 21.112 7.692 24.484C6.902 27.638 6.518 30.658 6.664 32.906L6.716 33.492L6.756 33.844L6.816 34.26C6.954 35.062 7.252 36 8 36C9.624 36 10.98 35.192 12.666 33.852L13.472 33.196L14.992 31.924L15.68 31.364C17.808 29.678 20.47 28 24 28C27.53 28 30.192 29.68 32.32 31.364L33.01 31.924L34.53 33.196L35.334 33.852C37.02 35.192 38.374 36 40 36C40.68 36 40.988 35.226 41.142 34.482L41.218 34.046L41.292 33.412C41.538 31.12 41.158 27.882 40.31 24.486C39.538 21.394 38.418 18.342 37.186 15.978L36.468 14.658L36.152 14.112C35.586 13.17 34.836 12.156 34 12ZM17 16C18.3261 16 19.5979 16.5268 20.5355 17.4645C21.4732 18.4021 22 19.6739 22 21C22 22.3261 21.4732 23.5979 20.5355 24.5355C19.5979 25.4732 18.3261 26 17 26C15.6739 26 14.4022 25.4732 13.4645 24.5355C12.5268 23.5979 12 22.3261 12 21C12 19.6739 12.5268 18.4021 13.4645 17.4645C14.4022 16.5268 15.6739 16 17 16ZM31 16C31.4899 16.0001 31.9627 16.1799 32.3287 16.5054C32.6948 16.8309 32.9287 17.2795 32.986 17.766L33 18V19H34C34.5098 19.0006 35.0001 19.1958 35.3707 19.5457C35.7414 19.8956 35.9645 20.3739 35.9943 20.8828C36.0242 21.3917 35.8587 21.8928 35.5315 22.2837C35.2043 22.6746 34.7402 22.9258 34.234 22.986L34 23H33V24C32.9994 24.5098 32.8042 25.0001 32.4543 25.3707C32.1044 25.7414 31.6261 25.9645 31.1172 25.9943C30.6083 26.0242 30.1072 25.8587 29.7163 25.5315C29.3254 25.2043 29.0742 24.7402 29.014 24.234L29 24V23H28C27.4902 22.9994 26.9999 22.8042 26.6293 22.4543C26.2586 22.1044 26.0355 21.6261 26.0057 21.1172C25.9758 20.6083 26.1414 20.1072 26.4685 19.7163C26.7957 19.3254 27.2598 19.0742 27.766 19.014L28 19H29V18C29 17.4696 29.2107 16.9609 29.5858 16.5858C29.9609 16.2107 30.4696 16 31 16ZM17 20C16.7348 20 16.4804 20.1054 16.2929 20.2929C16.1054 20.4804 16 20.7348 16 21C16 21.2652 16.1054 21.5196 16.2929 21.7071C16.4804 21.8946 16.7348 22 17 22C17.2652 22 17.5196 21.8946 17.7071 21.7071C17.8946 21.5196 18 21.2652 18 21C18 20.7348 17.8946 20.4804 17.7071 20.2929C17.5196 20.1054 17.2652 20 17 20Z" fill="black"/>
</svg>
