<svg width="48" height="48" viewBox="0 0 48 48" fill="none" xmlns="http://www.w3.org/2000/svg">
<path d="M16.0002 32C13.2002 31.067 9.96516 28.827 8.52416 26.575C8.33327 26.2624 8.24742 25.8969 8.27916 25.532L8.52416 21.782C8.57716 20.972 9.53416 20.542 10.1952 21.012C12.3302 22.529 16.2282 25 19.0002 25C26.0002 25 32.0002 22.5 35.0002 17" stroke="black" stroke-width="4" stroke-linecap="round" stroke-linejoin="round"/>
<path d="M26.0001 43C36.0001 41 45.2421 30.515 42.8671 19.941L41.9991 16V8L35.9991 7C35.9991 19.941 32.9991 30 19.9991 32C14.0231 32.92 8.29412 31.614 3.87012 29.078L5.00012 36C7.00012 41 16.0001 45 26.0001 43Z" stroke="black" stroke-width="4" stroke-linecap="round" stroke-linejoin="round"/>
</svg>
