<svg width="48" height="48" viewBox="0 0 48 48" fill="none" xmlns="http://www.w3.org/2000/svg">
<path d="M24 12V17M8 27V40C8 40.5304 8.21071 41.0391 8.58579 41.4142C8.96086 41.7893 9.46957 42 10 42H38C38.5304 42 39.0391 41.7893 39.4142 41.4142C39.7893 41.0391 40 40.5304 40 40V27M4 21.97C4 20.6519 4.52362 19.3877 5.45568 18.4557C6.38774 17.5236 7.65187 17 8.97 17H39.03C39.6827 16.9999 40.329 17.1283 40.9321 17.3781C41.5351 17.6278 42.0831 17.9939 42.5446 18.4554C43.0061 18.9169 43.3722 19.4649 43.6219 20.0679C43.8717 20.671 44.0001 21.3173 44 21.97V22.248C44 23.1587 43.7272 24.0485 43.2167 24.8026C42.7062 25.5568 41.9815 26.1407 41.136 26.479C40.7277 26.6425 40.2887 26.7153 39.8495 26.6925C39.4103 26.6697 38.9812 26.5518 38.592 26.347L38.25 26.167C37.7617 25.91 37.2183 25.7757 36.6665 25.7757C36.1147 25.7757 35.5713 25.91 35.083 26.167C34.5949 26.4238 34.0516 26.558 33.5 26.558C32.9484 26.558 32.4051 26.4238 31.917 26.167C31.4287 25.91 30.8853 25.7757 30.3335 25.7757C29.7817 25.7757 29.2383 25.91 28.75 26.167C28.2617 26.424 27.7183 26.5583 27.1665 26.5583C26.6147 26.5583 26.0713 26.424 25.583 26.167C25.0949 25.9102 24.5516 25.776 24 25.776C23.4484 25.776 22.9051 25.9102 22.417 26.167C21.9287 26.424 21.3853 26.5583 20.8335 26.5583C20.2817 26.5583 19.7383 26.424 19.25 26.167C18.7617 25.91 18.2183 25.7757 17.6665 25.7757C17.1147 25.7757 16.5713 25.91 16.083 26.167C15.5949 26.4238 15.0516 26.558 14.5 26.558C13.9484 26.558 13.4051 26.4238 12.917 26.167C12.4287 25.91 11.8853 25.7757 11.3335 25.7757C10.7817 25.7757 10.2383 25.91 9.75 26.167L9.408 26.347C9.01892 26.5517 8.59005 26.6695 8.151 26.6923C7.71195 26.7151 7.27318 26.6423 6.865 26.479C6.01963 26.141 5.2949 25.5574 4.78425 24.8037C4.2736 24.0499 4.00045 23.1605 4 22.25V21.97Z" stroke="black" stroke-width="4" stroke-linecap="round" stroke-linejoin="round"/>
<path d="M27 8C26.2 4 24 4 24 4C24 4 21.8 4 21 8C20 13 28 13 27 8Z" stroke="black" stroke-width="4"/>
</svg>
