<svg width="48" height="48" viewBox="0 0 48 48" fill="none" xmlns="http://www.w3.org/2000/svg">
<path d="M8.5715 25.7144H5.14293C4.23361 25.7144 3.36154 26.0756 2.71856 26.7186C2.07558 27.3616 1.71436 28.2336 1.71436 29.143V46.2858H12.0001M8.5715 25.7144C9.48081 25.7144 10.3529 26.0756 10.9959 26.7186C11.6388 27.3616 12.0001 28.2336 12.0001 29.143V46.2858M8.5715 25.7144V18.8572C8.5715 16.1293 9.65517 13.5131 11.5841 11.5841C13.5131 9.6552 16.1293 8.57153 18.8572 8.57153H29.1429C31.8709 8.57153 34.4871 9.6552 36.416 11.5841C38.345 13.5131 39.4286 16.1293 39.4286 18.8572V25.7144M12.0001 46.2858H36.0001M39.4286 25.7144H42.8572C43.7665 25.7144 44.6386 26.0756 45.2816 26.7186C45.9246 27.3616 46.2858 28.2336 46.2858 29.143V46.2858H36.0001M39.4286 25.7144C38.5193 25.7144 37.6473 26.0756 37.0043 26.7186C36.3613 27.3616 36.0001 28.2336 36.0001 29.143V46.2858M12.0001 32.5715H36.0001" stroke="black" stroke-width="3.42857" stroke-linecap="round" stroke-linejoin="round"/>
</svg>
