<svg width="48" height="48" viewBox="0 0 48 48" fill="none" xmlns="http://www.w3.org/2000/svg">
<path d="M45.3334 41.3334C43.8667 41.2001 42.5334 40.6668 41.3334 39.7334C40.6667 39.0668 39.7334 38.6668 38.6667 38.6668C37.7334 38.6668 36.6667 39.0668 36 39.7334C34.8 40.8001 33.3334 41.2001 31.8667 41.2001C30.2667 41.2001 28.6667 40.6668 27.4667 39.7334C25.8667 38.2668 23.4667 38.2668 22 39.7334C20.8 40.8001 19.2 41.3334 17.4667 41.3334C15.8667 41.3334 14.4 40.8001 13.2 39.7334C12.4 39.0668 11.4667 38.6668 10.5334 38.6668C9.46672 38.6668 8.26672 39.0668 7.46672 39.7334C6.13338 40.8001 4.40005 41.3334 2.80005 41.2001V38.6668C3.86672 38.6668 5.06672 38.2668 5.86672 37.4668C7.20005 36.4001 8.80005 35.8668 10.4 36.0001C12 36.0001 13.6 36.5335 14.8 37.6001C16.4 39.0668 18.8001 39.0668 20.4001 37.6001C22.9334 35.4668 26.6667 35.4668 29.0667 37.6001C30.6667 39.0668 33.0667 39.0668 34.5334 37.6001C35.7334 36.5335 37.3334 36.0001 38.9334 36.0001C40.4001 36.0001 41.8667 36.5335 42.9334 37.6001C43.7334 38.2668 44 38.6668 45.3334 38.6668V41.3334Z" fill="black"/>
<path d="M5.46659 34.9334C6.26659 34.2667 7.06659 33.8667 7.99992 33.6001V30.6667C7.99992 29.8667 8.53325 29.2001 9.33325 29.2001H42.6666L37.8666 33.3334H38.1333C39.1999 33.3334 40.2666 33.6001 41.0666 34.0001L44.3999 31.0667L44.6666 30.8001C45.5999 29.6001 45.3333 28.0001 44.1333 27.0667C43.8666 26.8001 43.1999 26.6667 42.6666 26.6667H9.33325C7.06659 26.6667 5.33325 28.4001 5.33325 30.6667L5.46659 34.9334Z" fill="black"/>
<path d="M19.8666 25.1999H11.8666C10.4 25.1999 9.19995 23.9999 9.19995 22.5332C9.19995 21.9999 9.33328 21.4666 9.73328 20.9332L15.2 13.1999C16 11.9999 17.7333 11.7332 18.9333 12.5332C19.6 13.0666 20 13.8666 20 14.6666V25.1999H19.8666Z" fill="black"/>
<path d="M32.3999 25.2H21.3333V8.53337C21.3333 7.0667 22.5333 5.8667 23.9999 5.8667C24.9333 5.8667 25.7333 6.40003 26.2666 7.20003L34.6666 21.0667C35.4666 22.4 34.9333 24 33.7333 24.6667C33.3333 24.9334 32.7999 25.0667 32.3999 25.2Z" fill="black"/>
</svg>
