<svg width="48" height="48" viewBox="0 0 48 48" fill="none" xmlns="http://www.w3.org/2000/svg">
<path fill-rule="evenodd" clip-rule="evenodd" d="M16 8C16 6.93913 16.4214 5.92172 17.1716 5.17157C17.9217 4.42143 18.9391 4 20 4H28C29.0609 4 30.0783 4.42143 30.8284 5.17157C31.5786 5.92172 32 6.93913 32 8V18H40C41.0609 18 42.0783 18.4214 42.8284 19.1716C43.5786 19.9217 44 20.9391 44 22V40C44 41.0609 43.5786 42.0783 42.8284 42.8284C42.0783 43.5786 41.0609 44 40 44H8C6.93913 44 5.92172 43.5786 5.17157 42.8284C4.42143 42.0783 4 41.0609 4 40V22C4 20.9391 4.42143 19.9217 5.17157 19.1716C5.92172 18.4214 6.93913 18 8 18H16V8ZM28 8H20V18C20 19.0609 19.5786 20.0783 18.8284 20.8284C18.0783 21.5786 17.0609 22 16 22H8V26H40V22H32C30.9391 22 29.9217 21.5786 29.1716 20.8284C28.4214 20.0783 28 19.0609 28 18V8ZM40 30H8V40H12V36C12 35.4696 12.2107 34.9609 12.5858 34.5858C12.9609 34.2107 13.4696 34 14 34C14.5304 34 15.0391 34.2107 15.4142 34.5858C15.7893 34.9609 16 35.4696 16 36V40H22V36C22 35.4696 22.2107 34.9609 22.5858 34.5858C22.9609 34.2107 23.4696 34 24 34C24.5304 34 25.0391 34.2107 25.4142 34.5858C25.7893 34.9609 26 35.4696 26 36V40H32V36C32 35.4696 32.2107 34.9609 32.5858 34.5858C32.9609 34.2107 33.4696 34 34 34C34.5304 34 35.0391 34.2107 35.4142 34.5858C35.7893 34.9609 36 35.4696 36 36V40H40V30Z" fill="black"/>
</svg>
