<svg width="48" height="48" viewBox="0 0 48 48" fill="none" xmlns="http://www.w3.org/2000/svg">
<path d="M24 34C29.5228 34 34 29.5228 34 24C34 18.4772 29.5228 14 24 14C18.4772 14 14 18.4772 14 24C14 29.5228 18.4772 34 24 34Z" stroke="black" stroke-width="4" stroke-linecap="round" stroke-linejoin="round"/>
<path d="M24 28C22.9391 28 21.9217 27.5786 21.1716 26.8284C20.4214 26.0783 20 25.0609 20 24" stroke="black" stroke-width="4" stroke-linecap="round"/>
<path d="M16.688 16.813L3.90796 14.967L14.842 4.03296L16.688 16.813ZM31.313 31.313L44.092 33.158L33.158 44.092L31.312 31.312L31.313 31.313Z" stroke="black" stroke-width="4" stroke-linejoin="round"/>
</svg>
