<svg width="48" height="48" viewBox="0 0 48 48" fill="none" xmlns="http://www.w3.org/2000/svg">
<path d="M39.5601 18.88L35.8801 8.88C35.6478 8.19207 35.2073 7.59343 34.6196 7.167C34.0319 6.74057 33.3262 6.50747 32.6001 6.5H15.4001C14.6837 6.50161 13.9851 6.72302 13.3985 7.13432C12.812 7.54563 12.3657 8.12702 12.1201 8.8L8.44012 18.8C7.84959 19.0826 7.34958 19.5243 6.99627 20.0755C6.64297 20.6266 6.45037 21.2654 6.44012 21.92V30.92C6.42863 31.505 6.56571 32.0834 6.83853 32.6011C7.11136 33.1188 7.51101 33.5588 8.00012 33.88C8.00012 33.88 8.00012 34 8.00012 34V38C8.00012 38.5304 8.21083 39.0391 8.58591 39.4142C8.96098 39.7893 9.46969 40 10.0001 40H12.0001C12.5306 40 13.0393 39.7893 13.4143 39.4142C13.7894 39.0391 14.0001 38.5304 14.0001 38V34.5H34.0001V38C34.0001 38.5304 34.2108 39.0391 34.5859 39.4142C34.961 39.7893 35.4697 40 36.0001 40H38.0001C38.5306 40 39.0393 39.7893 39.4143 39.4142C39.7894 39.0391 40.0001 38.5304 40.0001 38V33.88C40.4704 33.5616 40.855 33.1323 41.1201 32.63C41.3852 32.1277 41.5226 31.5679 41.5201 31V22C41.5136 21.3496 41.3269 20.7138 40.9809 20.1631C40.635 19.6123 40.1432 19.1682 39.5601 18.88ZM38.5001 31C38.5001 31.1326 38.4474 31.2598 38.3537 31.3536C38.2599 31.4473 38.1327 31.5 38.0001 31.5H10.0001C9.86751 31.5 9.74033 31.4473 9.64657 31.3536C9.5528 31.2598 9.50012 31.1326 9.50012 31V22C9.50012 21.8674 9.5528 21.7402 9.64657 21.6464C9.74033 21.5527 9.86751 21.5 10.0001 21.5H38.0001C38.1327 21.5 38.2599 21.5527 38.3537 21.6464C38.4474 21.7402 38.5001 21.8674 38.5001 22V31ZM14.9401 9.82C14.9761 9.72682 15.0391 9.64654 15.1211 9.58951C15.2031 9.53247 15.3003 9.5013 15.4001 9.5H32.6001C32.7 9.5013 32.7972 9.53247 32.8792 9.58951C32.9611 9.64654 33.0242 9.72682 33.0601 9.82L35.8601 17.5H12.1401L14.9401 9.82Z" fill="black"/>
<path d="M16 29.5C17.6569 29.5 19 28.1569 19 26.5C19 24.8431 17.6569 23.5 16 23.5C14.3431 23.5 13 24.8431 13 26.5C13 28.1569 14.3431 29.5 16 29.5Z" fill="black"/>
<path d="M32 29.5C33.6569 29.5 35 28.1569 35 26.5C35 24.8431 33.6569 23.5 32 23.5C30.3431 23.5 29 24.8431 29 26.5C29 28.1569 30.3431 29.5 32 29.5Z" fill="black"/>
</svg>
