<svg width="48" height="48" viewBox="0 0 48 48" fill="none" xmlns="http://www.w3.org/2000/svg">
<path d="M12 5C11.4696 5 10.9609 5.21071 10.5858 5.58579C10.2107 5.96086 10 6.46957 10 7V11C10 11.5304 10.2107 12.0391 10.5858 12.4142C10.9609 12.7893 11.4696 13 12 13C12.5304 13 13.0391 12.7893 13.4142 12.4142C13.7893 12.0391 14 11.5304 14 11V7C14 6.46957 13.7893 5.96086 13.4142 5.58579C13.0391 5.21071 12.5304 5 12 5Z" fill="black"/>
<path fill-rule="evenodd" clip-rule="evenodd" d="M26 43C28.8359 42.9996 31.5802 41.9952 33.7463 40.1648C35.9124 38.3344 37.3606 35.7961 37.834 33H38C40.1217 33 42.1566 32.1571 43.6569 30.6569C45.1571 29.1566 46 27.1217 46 25C46 22.8783 45.1571 20.8434 43.6569 19.3431C42.1566 17.8429 40.1217 17 38 17V15H2V31C2 34.1826 3.26428 37.2348 5.51472 39.4853C7.76516 41.7357 10.8174 43 14 43H26ZM6 19V31C6 33.1217 6.84285 35.1566 8.34315 36.6569C9.84344 38.1571 11.8783 39 14 39H26C28.1217 39 30.1566 38.1571 31.6569 36.6569C33.1571 35.1566 34 33.1217 34 31V19H6ZM42 25C42 26.0609 41.5786 27.0783 40.8284 27.8284C40.0783 28.5786 39.0609 29 38 29V21C39.0609 21 40.0783 21.4214 40.8284 22.1716C41.5786 22.9217 42 23.9391 42 25Z" fill="black"/>
<path d="M18 7C18 6.46957 18.2107 5.96086 18.5858 5.58579C18.9609 5.21071 19.4696 5 20 5C20.5304 5 21.0391 5.21071 21.4142 5.58579C21.7893 5.96086 22 6.46957 22 7V11C22 11.5304 21.7893 12.0391 21.4142 12.4142C21.0391 12.7893 20.5304 13 20 13C19.4696 13 18.9609 12.7893 18.5858 12.4142C18.2107 12.0391 18 11.5304 18 11V7ZM28 5C27.4696 5 26.9609 5.21071 26.5858 5.58579C26.2107 5.96086 26 6.46957 26 7V11C26 11.5304 26.2107 12.0391 26.5858 12.4142C26.9609 12.7893 27.4696 13 28 13C28.5304 13 29.0391 12.7893 29.4142 12.4142C29.7893 12.0391 30 11.5304 30 11V7C30 6.46957 29.7893 5.96086 29.4142 5.58579C29.0391 5.21071 28.5304 5 28 5Z" fill="black"/>
</svg>
