<svg width="48" height="48" viewBox="0 0 48 48" fill="none" xmlns="http://www.w3.org/2000/svg">
<path d="M41.9999 14C42.0001 13.2585 41.8353 12.5262 41.5175 11.8562C41.1998 11.1863 40.737 10.5954 40.1626 10.1263C39.5883 9.65728 38.9168 9.32186 38.1969 9.14435C37.4769 8.96685 36.7265 8.9517 35.9999 9.1V8C36.0004 7.2288 35.8224 6.46795 35.48 5.77694C35.1376 5.08593 34.6399 4.48351 34.026 4.01677C33.4121 3.55003 32.6985 3.23163 31.9411 3.08647C31.1837 2.94131 30.4029 2.97332 29.6599 3.18C29.2915 2.2439 28.6501 1.44017 27.8192 0.873112C26.9882 0.306056 26.006 0.00185908 24.9999 0C22.5399 0 20.4999 1.78 20.0799 4.12C19.3494 3.9584 18.592 3.96279 17.8634 4.13285C17.1348 4.30292 16.4537 4.63432 15.8702 5.10263C15.2867 5.57095 14.8158 6.16423 14.4921 6.83875C14.1684 7.51327 14.0002 8.25183 13.9999 9V20.78C13.3199 20.16 12.4799 19.7 11.5599 19.46L10.0199 19.04C8.35995 18.58 6.61995 19.22 5.63995 20.7C4.87995 21.84 4.83995 23.32 5.33995 24.6L10.4599 37.46C11.696 40.5716 13.8383 43.2402 16.6092 45.1195C19.3802 46.9989 22.6518 48.0024 25.9999 48C34.8399 48 41.9999 40.84 41.9999 32V14ZM37.9999 32C37.9999 38.62 32.6199 44 25.9999 44C20.7799 44 16.0999 40.82 14.1799 35.98L8.97995 22.9L10.0399 23.18C10.9599 23.42 11.6999 24.1 12.0399 24.98L13.9999 30H17.9999V9C17.9999 8.44 18.4399 8 18.9999 8C19.5599 8 19.9999 8.44 19.9999 9V24H23.9999V5C23.9999 4.44 24.4399 4 24.9999 4C25.5599 4 25.9999 4.44 25.9999 5V24H29.9999V8C29.9999 7.44 30.4399 7 30.9999 7C31.5599 7 31.9999 7.44 31.9999 8V24H35.9999V14C35.9999 13.44 36.4399 13 36.9999 13C37.5599 13 37.9999 13.44 37.9999 14V32Z" fill="black"/>
</svg>
