<svg width="48" height="48" viewBox="0 0 48 48" fill="none" xmlns="http://www.w3.org/2000/svg">
<path d="M44.3194 26.1375C44.0307 25.8483 43.6688 25.6431 43.2724 25.544C42.876 25.4449 42.4601 25.4556 42.0694 25.575C39.3396 26.3991 36.4374 26.4673 33.6719 25.7723C30.9064 25.0774 28.3813 23.6453 26.3654 21.6286C24.3495 19.6119 22.9183 17.0862 22.2244 14.3205C21.5305 11.5547 21.5998 8.65258 22.425 5.92312C22.5454 5.53219 22.5569 5.11584 22.4583 4.71884C22.3598 4.32185 22.1548 3.95923 21.8656 3.67C21.5764 3.38076 21.2137 3.17584 20.8168 3.07728C20.4198 2.97872 20.0034 2.99024 19.6125 3.11062C15.507 4.37248 11.9041 6.89729 9.31685 10.3256C7.0543 13.3329 5.67454 16.9112 5.3324 20.659C4.99026 24.4068 5.69928 28.1758 7.3799 31.5431C9.06052 34.9104 11.6462 37.7427 14.8469 39.7222C18.0476 41.7018 21.7366 42.7503 25.5 42.75C29.8938 42.7629 34.1705 41.3342 37.6744 38.6831C41.1009 36.0932 43.623 32.4884 44.8819 28.3819C45.0001 27.9919 45.0103 27.5771 44.9112 27.1818C44.8121 26.7865 44.6076 26.4256 44.3194 26.1375ZM34.9669 35.0887C31.934 37.3719 28.1787 38.4828 24.3918 38.2171C20.605 37.9514 17.0416 36.3269 14.3573 33.6427C11.673 30.9584 10.0486 27.395 9.78285 23.6081C9.51715 19.8213 10.6281 16.0659 12.9112 13.0331C14.1126 11.444 15.6015 10.0944 17.3006 9.05437C17.2669 9.53437 17.25 10.0162 17.25 10.5C17.2559 15.8688 19.3913 21.016 23.1876 24.8123C26.984 28.6087 32.1312 30.744 37.5 30.75C37.9837 30.75 38.4656 30.7331 38.9456 30.6994C37.9061 32.3989 36.5564 33.8878 34.9669 35.0887Z" fill="black"/>
</svg>
