<svg width="48" height="48" viewBox="0 0 48 48" fill="none" xmlns="http://www.w3.org/2000/svg">
<path d="M30 10.0001L38 18.0001M34 6.00005C34.5094 5.39812 35.1394 4.90817 35.85 4.56142C36.5606 4.21466 37.3362 4.01872 38.1273 3.98608C38.9184 3.95344 39.7076 4.08481 40.4448 4.37183C41.1819 4.65884 41.8507 5.0952 42.4086 5.65309C42.9665 6.21099 43.4012 6.87818 43.6851 7.61213C43.9689 8.34609 44.0957 9.13072 44.0572 9.91601C44.0188 10.7013 43.816 11.47 43.4618 12.1732C43.1076 12.8763 42.6098 13.4985 42 14.0001L15 41.0001L4 44.0001L7 33.0001L34 6.00005Z" stroke="black" stroke-width="4" stroke-linecap="round" stroke-linejoin="round"/>
</svg>
