<svg width="48" height="48" viewBox="0 0 48 48" fill="none" xmlns="http://www.w3.org/2000/svg">
<path d="M16.4999 18.0001H17.7659L17.9999 17.9971V18.0001H26.3999C26.6024 17.6026 26.8364 17.2231 27.0989 16.8661L24.2429 13.3411C23.5117 12.4388 23.1574 11.2888 23.254 10.1315C23.3505 8.97411 23.8905 7.89881 24.7612 7.13018C25.6319 6.36155 26.7658 5.95905 27.9262 6.00673C29.0867 6.05442 30.1838 6.5486 30.9884 7.38607L41.7479 18.5761C43.162 19.7497 44.1829 21.3281 44.6734 23.0991C45.1639 24.8701 45.1006 26.7488 44.4918 28.4827C43.8831 30.2166 42.7582 31.7227 41.2683 32.7984C39.7783 33.8741 37.9948 34.4679 36.1574 34.5001C36.1574 36.0914 35.5253 37.6175 34.4001 38.7427C33.2749 39.8679 31.7487 40.5001 30.1574 40.5001H16.4999C14.5108 40.5001 12.6032 39.7099 11.1966 38.3034C9.79011 36.8969 8.99993 34.9892 8.99993 33.0001V29.8501C7.18291 29.4737 5.56981 28.4373 4.47219 26.9412C3.37458 25.445 2.87032 23.5952 3.0568 21.749C3.24329 19.9028 4.10729 18.1912 5.48193 16.9448C6.85658 15.6983 8.64434 15.0055 10.4999 15.0001C11.6645 14.9989 12.8132 15.2695 13.8548 15.7903C14.8964 16.3111 15.8021 17.0677 16.4999 18.0001ZM28.8269 9.46507C28.5594 9.18128 28.192 9.0126 27.8024 8.99467C27.4128 8.97673 27.0315 9.11095 26.739 9.36896C26.4465 9.62697 26.2658 9.98858 26.235 10.3774C26.2042 10.7662 26.3257 11.1517 26.5739 11.4526L31.0859 17.0221L30.0989 17.9761C29.5146 18.5414 29.0694 19.2346 28.7984 20.0011L28.4444 21.0001H17.8094C16.2519 21.0496 14.7747 21.7031 13.6905 22.8223C12.6062 23.9416 11.9999 25.4388 11.9999 26.9971V33.0001C11.9999 34.1936 12.474 35.3381 13.318 36.1821C14.1619 37.026 15.3065 37.5001 16.4999 37.5001H23.9999V36.7501C23.9999 35.7555 23.6048 34.8017 22.9016 34.0984C22.1983 33.3952 21.2445 33.0001 20.2499 33.0001H17.9999C17.6021 33.0001 17.2206 32.842 16.9393 32.5607C16.658 32.2794 16.4999 31.8979 16.4999 31.5001C16.4999 31.1023 16.658 30.7207 16.9393 30.4394C17.2206 30.1581 17.6021 30.0001 17.9999 30.0001H20.2499C22.0401 30.0001 23.757 30.7112 25.0229 31.9771C26.2888 33.243 26.9999 34.9599 26.9999 36.7501V37.5001H30.1574C30.9531 37.5001 31.7161 37.184 32.2787 36.6214C32.8414 36.0588 33.1574 35.2957 33.1574 34.5001V31.0846L34.9244 31.4041C36.2354 31.6436 37.5888 31.4399 38.7711 30.825C39.9534 30.2101 40.8974 29.2192 41.4542 28.0084C42.0109 26.7976 42.1487 25.4359 41.8458 24.1381C41.5429 22.8403 40.8166 21.6803 39.7814 20.8411L39.7109 20.7841L28.8269 9.46507ZM9.00293 26.7451C9.04582 25.201 9.48552 23.694 10.2797 22.3691C11.0739 21.0442 12.1958 19.9461 13.5374 19.1806C13.045 18.7311 12.4588 18.3966 11.8213 18.2014C11.1838 18.0062 10.5109 17.9551 9.85117 18.0518C9.19148 18.1485 8.56152 18.3905 8.00683 18.7605C7.45215 19.1304 6.9866 19.619 6.64385 20.1909C6.3011 20.7628 6.08971 21.4037 6.02498 22.0673C5.96024 22.7309 6.04377 23.4005 6.26952 24.0279C6.49528 24.6553 6.85762 25.2246 7.33034 25.6948C7.80307 26.165 8.37437 26.5227 9.00293 26.7451Z" fill="black"/>
</svg>
