<svg width="48" height="48" viewBox="0 0 48 48" fill="none" xmlns="http://www.w3.org/2000/svg">
<path d="M8 44C6.9 44 5.958 43.608 5.174 42.824C4.39 42.04 3.99867 41.0987 4 40V16C4 15.1667 4.22534 14.4167 4.676 13.75C5.12667 13.0833 5.73467 12.6 6.5 12.3L31.8 2L33.1 5.3L16.6 12H40C41.1 12 42.042 12.392 42.826 13.176C43.61 13.96 44.0013 14.9013 44 16V40C44 41.1 43.608 42.042 42.824 42.826C42.04 43.61 41.0987 44.0013 40 44H8ZM8 40H40V26H8V40ZM16 38C17.4 38 18.5833 37.5167 19.55 36.55C20.5167 35.5833 21 34.4 21 33C21 31.6 20.5167 30.4167 19.55 29.45C18.5833 28.4833 17.4 28 16 28C14.6 28 13.4167 28.4833 12.45 29.45C11.4833 30.4167 11 31.6 11 33C11 34.4 11.4833 35.5833 12.45 36.55C13.4167 37.5167 14.6 38 16 38ZM8 22H32V18H36V22H40V16H8V22Z" fill="black"/>
</svg>
