<svg width="48" height="48" viewBox="0 0 48 48" fill="none" xmlns="http://www.w3.org/2000/svg">
<path fill-rule="evenodd" clip-rule="evenodd" d="M22.126 4.93801C22.6181 4.54451 23.2216 4.31593 23.8509 4.28469C24.4802 4.25346 25.1034 4.42116 25.632 4.76401L25.874 4.93801L34.498 11.838C34.9188 12.1743 35.2673 12.5921 35.5226 13.0664C35.778 13.5407 35.9349 14.0616 35.984 14.598L36 14.96V20H40C41.0092 19.9997 41.9811 20.3808 42.7211 21.067C43.4611 21.7532 43.9143 22.6937 43.99 23.7L44 24V39.8C44.0003 40.3421 43.8004 40.8653 43.4387 41.2691C43.0769 41.6728 42.5789 41.9289 42.04 41.988L41.8 42H6.2C5.65788 42.0003 5.13475 41.8004 4.73096 41.4387C4.32716 41.077 4.07114 40.5789 4.012 40.04L4 39.8V24C3.99968 22.9909 4.38081 22.0189 5.06699 21.2789C5.75317 20.539 6.69369 20.0857 7.7 20.01L8 20H12V14.96C12 14.4214 12.1087 13.8883 12.3197 13.3927C12.5307 12.8971 12.8397 12.4493 13.228 12.076L13.502 11.836L22.126 4.93601V4.93801ZM24 8.56001L16 14.96V38H32V14.96L24 8.56001ZM40 24H36V38H40V24ZM12 24H8V38H12V24ZM24 16C24.7879 16 25.5681 16.1552 26.2961 16.4567C27.0241 16.7583 27.6855 17.2002 28.2426 17.7574C28.7998 18.3145 29.2417 18.976 29.5433 19.7039C29.8448 20.4319 30 21.2121 30 22C30 22.7879 29.8448 23.5682 29.5433 24.2961C29.2417 25.0241 28.7998 25.6855 28.2426 26.2427C27.6855 26.7998 27.0241 27.2418 26.2961 27.5433C25.5681 27.8448 24.7879 28 24 28C22.4087 28 20.8826 27.3679 19.7574 26.2427C18.6321 25.1174 18 23.5913 18 22C18 20.4087 18.6321 18.8826 19.7574 17.7574C20.8826 16.6322 22.4087 16 24 16ZM24 20C23.4696 20 22.9609 20.2107 22.5858 20.5858C22.2107 20.9609 22 21.4696 22 22C22 22.5304 22.2107 23.0392 22.5858 23.4142C22.9609 23.7893 23.4696 24 24 24C24.5304 24 25.0391 23.7893 25.4142 23.4142C25.7893 23.0392 26 22.5304 26 22C26 21.4696 25.7893 20.9609 25.4142 20.5858C25.0391 20.2107 24.5304 20 24 20Z" fill="black"/>
</svg>
