<svg width="48" height="48" viewBox="0 0 48 48" fill="none" xmlns="http://www.w3.org/2000/svg">
<path fill-rule="evenodd" clip-rule="evenodd" d="M16.2561 18.31C15.0636 19.7362 13.384 20.6689 11.543 20.9271C9.70198 21.1854 7.83064 20.7509 6.29177 19.7078C4.75289 18.6648 3.6561 17.0875 3.21402 15.2818C2.77194 13.4761 3.01606 11.5706 3.89906 9.9346C4.78206 8.29864 6.24103 7.0488 7.99314 6.42738C9.74525 5.80596 11.6657 5.85723 13.3821 6.57124C15.0986 7.28525 16.4888 8.61114 17.2833 10.2919C18.0777 11.9726 18.2199 13.8885 17.6821 15.668L19.9541 16.98C20.1387 17.0865 20.2984 17.2311 20.4228 17.4041C20.5471 17.5772 20.6332 17.7748 20.6752 17.9837C20.7172 18.1926 20.7142 18.4081 20.6664 18.6157C20.6186 18.8234 20.5272 19.0185 20.3981 19.188L20.3861 19.202C20.1502 19.5122 19.8029 19.7184 19.4177 19.777C19.0324 19.8357 18.6395 19.742 18.3221 19.516C18.249 19.4645 18.1736 19.4165 18.0961 19.372L16.2561 18.31ZM6.60207 11.25C7.1798 10.2465 8.12217 9.50421 9.23318 9.1777C10.3442 8.85119 11.5383 8.96554 12.5672 9.49696C13.596 10.0284 14.3804 10.936 14.7572 12.031C15.1339 13.126 15.0741 14.3241 14.5901 15.376C14.4827 15.5141 14.4002 15.6697 14.3461 15.836C13.7379 16.863 12.7468 17.6062 11.5906 17.9024C10.4344 18.1985 9.20799 18.0232 8.18107 17.415C7.15415 16.8069 6.41088 15.8157 6.11476 14.6596C5.81864 13.5034 5.99393 12.277 6.60207 11.25ZM26.6961 16.544C25.0387 17.0497 23.5384 17.9713 22.3383 19.2212C21.1381 20.4711 20.278 22.0075 19.8401 23.684C19.6381 24.458 19.5241 25.264 19.5101 26.088C19.5017 26.5764 19.3671 27.0543 19.1193 27.4752C18.8715 27.8961 18.519 28.2457 18.0961 28.49L16.1761 29.598C14.9608 28.1912 13.2664 27.2856 11.4215 27.057C9.57651 26.8283 7.71237 27.2929 6.19044 28.3606C4.66852 29.4282 3.59723 31.023 3.18427 32.8356C2.77131 34.6482 3.04609 36.5496 3.95535 38.1712C4.86461 39.7927 6.34356 41.0189 8.1055 41.612C9.86743 42.2051 11.7868 42.1229 13.4916 41.3812C15.1963 40.6396 16.565 39.2914 17.3322 37.598C18.0994 35.9046 18.2106 33.9867 17.6441 32.216L45.1021 16.364C45.359 16.2157 45.5662 15.9945 45.6974 15.7284C45.8286 15.4623 45.878 15.1632 45.8392 14.8691C45.8005 14.5749 45.6754 14.2989 45.4797 14.0758C45.2841 13.8528 45.0267 13.6928 44.7401 13.616L43.1341 13.186C41.2335 12.6764 39.2279 12.711 37.3461 13.286L26.6961 16.544ZM8.25007 30.604C7.73416 30.8974 7.28137 31.2898 6.91777 31.7589C6.55416 32.2279 6.28692 32.7642 6.13142 33.3369C5.97593 33.9096 5.93526 34.5075 6.01176 35.096C6.08825 35.6845 6.2804 36.2521 6.57713 36.766C6.87387 37.28 7.26933 37.7301 7.74076 38.0906C8.21219 38.4511 8.75026 38.7148 9.32401 38.8665C9.89776 39.0182 10.4958 39.0549 11.0838 38.9745C11.6718 38.8941 12.2381 38.6982 12.7501 38.398C13.7752 37.7971 14.521 36.815 14.8247 35.6662C15.1285 34.5173 14.9655 33.295 14.3713 32.2659C13.7771 31.2368 12.8 30.4845 11.6533 30.1732C10.5065 29.8618 9.28308 30.0167 8.25007 30.604ZM24.0001 25.5C24.3979 25.5 24.7794 25.342 25.0607 25.0607C25.342 24.7794 25.5001 24.3979 25.5001 24C25.5001 23.6022 25.342 23.2207 25.0607 22.9394C24.7794 22.6581 24.3979 22.5 24.0001 22.5C23.6022 22.5 23.2207 22.6581 22.9394 22.9394C22.6581 23.2207 22.5001 23.6022 22.5001 24C22.5001 24.3979 22.6581 24.7794 22.9394 25.0607C23.2207 25.342 23.6022 25.5 24.0001 25.5Z" fill="black"/>
<path d="M32.7441 25.23C32.9721 25.0984 33.2308 25.0291 33.4941 25.0291C33.7574 25.0291 34.0161 25.0984 34.2441 25.23L45.1041 31.5C45.361 31.6485 45.5681 31.8699 45.6992 32.1361C45.8303 32.4023 45.8794 32.7015 45.8405 32.9957C45.8015 33.2898 45.6762 33.5659 45.4803 33.7888C45.2844 34.0117 45.0268 34.1715 44.7401 34.248L43.1361 34.678C41.2353 35.187 39.2297 35.1517 37.3481 34.576L27.0541 31.428C26.7745 31.3427 26.5259 31.1776 26.3388 30.9529C26.1518 30.7282 26.0345 30.4538 26.0014 30.1633C25.9682 29.8729 26.0207 29.5791 26.1523 29.3181C26.2839 29.057 26.4889 28.8401 26.7421 28.694L32.7441 25.23Z" fill="black"/>
</svg>
