<svg width="48" height="48" viewBox="0 0 48 48" fill="none" xmlns="http://www.w3.org/2000/svg">
<path d="M40 24C40.0008 22.2648 39.4317 20.5774 38.3802 19.1972C37.3287 17.8169 35.8531 16.8201 34.18 16.36L28.94 14.88C27.24 14.38 26 12.78 26 11V2H8V32H40V24ZM36 28H12V6H22V8H19C18.44 8 18 8.44 18 9C18 9.56 18.44 10 19 10H22L22.2 12H19C18.44 12 18 12.44 18 13C18 13.56 18.44 14 19 14H22.62C23.52 16.24 25.42 18.02 27.82 18.72L33.06 20.18C34.8 20.66 36 22.2 36 24V28ZM10 34C6.68 34 4 36.68 4 40C4 43.32 6.68 46 10 46C13.32 46 16 43.32 16 40C16 36.68 13.32 34 10 34ZM10 42C8.9 42 8 41.1 8 40C8 38.9 8.9 38 10 38C11.1 38 12 38.9 12 40C12 41.1 11.1 42 10 42ZM38 34C34.68 34 32 36.68 32 40C32 43.32 34.68 46 38 46C41.32 46 44 43.32 44 40C44 36.68 41.32 34 38 34ZM38 42C36.9 42 36 41.1 36 40C36 38.9 36.9 38 38 38C39.1 38 40 38.9 40 40C40 41.1 39.1 42 38 42ZM24 34C20.68 34 18 36.68 18 40C18 43.32 20.68 46 24 46C27.32 46 30 43.32 30 40C30 36.68 27.32 34 24 34ZM24 42C22.9 42 22 41.1 22 40C22 38.9 22.9 38 24 38C25.1 38 26 38.9 26 40C26 41.1 25.1 42 24 42Z" fill="black"/>
</svg>
