<svg width="48" height="48" viewBox="0 0 48 48" fill="none" xmlns="http://www.w3.org/2000/svg">
<path d="M39.9999 18C36.9999 18 32.0003 18 30.0001 23C27.9998 28 30.5 32.5 33 35" stroke="black" stroke-width="4" stroke-linecap="round" stroke-linejoin="round"/>
<path d="M18 10H40" stroke="black" stroke-width="4" stroke-linecap="round" stroke-linejoin="round"/>
<path d="M20.0004 4H38.0005C39.1051 4 40.0005 4.89543 40.0005 6V24.2876C40.0005 27.7198 38.4 30.9554 35.6644 33.0283C32.0223 35.7881 27.0881 39.5088 25.0004 41C21.5004 43.5 15.0004 46 10.0007 41C5.00095 36 6.25106 29.443 10.0009 26C13.7507 22.557 18.0004 19.1519 18.0004 19.1519V6C18.0004 4.89543 18.8958 4 20.0004 4Z" stroke="black" stroke-width="4" stroke-linecap="round" stroke-linejoin="round"/>
</svg>
