<svg width="48" height="48" viewBox="0 0 48 48" fill="none" xmlns="http://www.w3.org/2000/svg">
<path d="M32.0001 42H16.0001C15.4697 42 14.961 41.7893 14.5859 41.4142C14.2108 41.0391 14.0001 40.5304 14.0001 40V24.14L11.4001 26.24C10.6201 27 9.36009 27 8.58009 26.24L2.92009 20.58C2.73469 20.395 2.58759 20.1752 2.48723 19.9332C2.38687 19.6913 2.33521 19.4319 2.33521 19.17C2.33521 18.9081 2.38687 18.6487 2.48723 18.4068C2.58759 18.1648 2.73469 17.945 2.92009 17.76L14.6801 6H18.0001C18.0001 8.2 20.6801 10 24.0001 10C27.3201 10 30.0001 8.2 30.0001 6H33.3201L45.0801 17.76C45.8601 18.54 45.8601 19.8 45.0801 20.58L39.4201 26.24C38.6401 27 37.3801 27 36.6001 26.24L34.0001 24.14V40C34.0001 40.5304 33.7894 41.0391 33.4143 41.4142C33.0392 41.7893 32.5305 42 32.0001 42ZM40.8401 19.16L32.2201 10.56C31.6001 11.26 30.8601 11.88 30.0001 12.4C28.3201 13.4 26.2601 14 24.0001 14C20.6001 14 17.5801 12.64 15.7801 10.56L7.16009 19.16L10.0001 22L16.0001 18H18.0001V38H30.0001V18H32.0001L38.0001 22L40.8401 19.16Z" fill="black"/>
</svg>
