<svg width="48" height="48" viewBox="0 0 48 48" fill="none" xmlns="http://www.w3.org/2000/svg">
<path d="M24 8C14.17 8 6.18 14.756 6.002 25.634C6.0012 25.6821 6.01005 25.7299 6.02803 25.7745C6.04601 25.8192 6.07276 25.8598 6.1067 25.8939C6.14063 25.928 6.18107 25.955 6.2256 25.9732C6.27014 25.9914 6.31788 26.0005 6.366 26C6.43776 25.9996 6.50791 25.9787 6.56815 25.9397C6.6284 25.9007 6.67623 25.8453 6.706 25.78C7.752 23.534 9.564 23 12 23C14.37 23 15.928 23.454 16.912 25.604C17.02 25.844 17.256 26 17.52 26C17.6602 25.9956 17.7961 25.9511 17.9117 25.8717C18.0273 25.7922 18.1177 25.6813 18.172 25.552C19.12 23.458 21.802 23 24 23M24 8C33.832 8 41.82 14.756 41.996 25.634C41.9968 25.6818 41.9881 25.7292 41.9703 25.7736C41.9526 25.818 41.9262 25.8584 41.8927 25.8924C41.8592 25.9265 41.8192 25.9536 41.7752 25.972C41.7311 25.9905 41.6838 26 41.636 26C41.5642 25.9996 41.4941 25.9787 41.4339 25.9397C41.3736 25.9007 41.3258 25.8453 41.296 25.78C40.246 23.534 38.436 23 36 23C33.63 23 32.072 23.454 31.088 25.604C31.0352 25.7213 30.9498 25.8209 30.842 25.8911C30.7343 25.9613 30.6086 25.9991 30.48 26C30.3398 25.9956 30.2039 25.9511 30.0883 25.8717C29.9727 25.7922 29.8823 25.6813 29.828 25.552C28.88 23.458 26.198 23 24 23M24 8V4M24 23V40C24 41.0609 23.5786 42.0783 22.8284 42.8284C22.0783 43.5786 21.0609 44 20 44C18.9391 44 17.9217 43.5786 17.1716 42.8284C16.4214 42.0783 16 41.0609 16 40" stroke="black" stroke-width="4" stroke-linecap="round" stroke-linejoin="round"/>
</svg>
