<svg width="48" height="48" viewBox="0 0 48 48" fill="none" xmlns="http://www.w3.org/2000/svg">
<path fill-rule="evenodd" clip-rule="evenodd" d="M11.156 10.686C8.45507 13.291 6.61019 16.6558 5.8662 20.3338C5.1222 24.0118 5.51428 27.8291 6.99038 31.2791C8.46649 34.729 10.9568 37.6485 14.1309 39.6501C17.305 41.6517 21.0127 42.6408 24.762 42.486C24.35 40.662 24.294 38.21 25.548 35.848C26.852 33.39 29.552 32.324 31.538 31.836C32.7822 31.5348 34.0544 31.3646 35.334 31.328H35.42C38.766 31.292 40.272 30.204 41.072 29.168C41.756 28.28 42.012 27.394 42.276 26.496L42.376 26.152C42.7018 23.4059 42.4057 20.6216 41.5097 18.0054C40.6138 15.3891 39.1408 13.0079 37.2 11.038C37.1826 11.1048 37.1646 11.1715 37.146 11.238C36.82 12.426 36.296 13.642 35.724 14.51C35.212 15.286 34.22 16.07 33.396 16.662C32.816 17.0686 32.2137 17.4426 31.592 17.782C31.136 18.046 30.726 18.282 30.332 18.542C29.468 19.114 28.8 19.728 28.35 20.654C28.2024 20.9598 28.1774 21.3104 28.28 21.634C28.43 22.178 28.532 22.79 28.532 23.412C28.536 24.71 27.874 25.764 27.026 26.448C26.1625 27.1369 25.0886 27.5083 23.984 27.5C19.074 27.446 16.054 23.46 15.656 19.028C15.496 17.266 14.724 15.482 13.748 13.924C13.0142 12.746 12.1442 11.6605 11.156 10.686ZM13.49 8.774C14.5489 9.85552 15.4877 11.0485 16.29 12.332C17.406 14.112 18.428 16.356 18.644 18.76C18.944 22.12 21.07 24.468 24.016 24.5C24.4242 24.5006 24.8208 24.364 25.142 24.112C25.434 23.878 25.534 23.632 25.532 23.42C25.532 23.108 25.48 22.764 25.388 22.43C25.092 21.4049 25.1853 20.3065 25.65 19.346C26.42 17.758 27.562 16.776 28.678 16.04C29.156 15.724 29.652 15.44 30.098 15.18L30.278 15.08C30.788 14.784 31.238 14.52 31.644 14.226C32.506 13.606 33.052 13.112 33.218 12.858C33.584 12.306 33.994 11.39 34.254 10.444C34.46 9.696 34.516 9.12 34.498 8.764C31.4127 6.63241 27.7501 5.49364 24 5.5C20.2448 5.49414 16.5775 6.63653 13.49 8.774ZM45.36 26.48C45.454 25.666 45.502 24.84 45.502 24C45.502 12.126 35.876 2.5 24.002 2.5C12.128 2.5 2.5 12.126 2.5 24C2.5 35.874 12.126 45.5 24 45.5C34.92 45.5 43.94 37.358 45.318 26.812C45.3471 26.7071 45.3791 26.6031 45.414 26.5L45.36 26.48ZM39.812 33.614C38.62 34.05 37.184 34.31 35.454 34.328H35.392L35.212 34.334C34.2162 34.3765 33.2268 34.5158 32.258 34.75C30.454 35.192 28.872 35.99 28.2 37.254C27.288 38.972 27.42 40.84 27.76 42.118C30.2442 41.6016 32.5959 40.5803 34.669 39.1175C36.7422 37.6546 38.4927 35.7814 39.812 33.614Z" fill="black"/>
</svg>
