<svg width="48" height="48" viewBox="0 0 48 48" fill="none" xmlns="http://www.w3.org/2000/svg">
<path fill-rule="evenodd" clip-rule="evenodd" d="M24 4C25.66 4 27.132 5.154 28.21 6.312C29.02 7.18 29.792 8.274 30.428 9.532C32.2545 8.58807 34.2641 8.05173 36.318 7.96C38.466 7.86 39.862 9.576 39.99 11.332L40 11.596V16C39.9998 19.8104 38.6401 23.4957 36.1654 26.393C33.6907 29.2904 30.2634 31.2098 26.5 31.806L26 31.876V38.016C28.152 36.678 31.324 35.108 35.516 34.06C35.7725 33.9912 36.0401 33.9741 36.3032 34.0098C36.5663 34.0455 36.8197 34.1333 37.0485 34.2679C37.2774 34.4026 37.4771 34.5815 37.6361 34.7941C37.7951 35.0068 37.9101 35.249 37.9745 35.5066C38.0389 35.7642 38.0514 36.0321 38.0112 36.2945C37.971 36.557 37.8789 36.8088 37.7404 37.0353C37.6018 37.2618 37.4195 37.4585 37.2042 37.6138C36.9888 37.7691 36.7447 37.88 36.486 37.94C33.7737 38.6025 31.1682 39.6434 28.746 41.032L28.056 41.448L27.74 41.648L27.168 42.032L26.676 42.382L26.266 42.694L25.934 42.96L25.586 43.256C25.12 43.672 24.658 44 24 44C23.442 44 23.024 43.764 22.624 43.438L22.084 42.976L21.758 42.712L21.348 42.402L20.86 42.05L20.584 41.864L19.974 41.466L19.638 41.26L18.904 40.834C16.5799 39.546 14.0947 38.5728 11.514 37.94C11.2576 37.8777 11.0161 37.7653 10.8033 37.6093C10.5906 37.4532 10.4108 37.2566 10.2743 37.0308C10.1379 36.805 10.0475 36.5544 10.0083 36.2935C9.96914 36.0325 9.98198 35.7665 10.0461 35.5105C10.1102 35.2546 10.2243 35.0139 10.3819 34.8022C10.5394 34.5906 10.7373 34.4122 10.9641 34.2774C11.1909 34.1426 11.4421 34.0539 11.7033 34.0166C11.9645 33.9793 12.2305 33.9941 12.486 34.06C16.396 35.038 19.42 36.472 21.556 37.746L22 38.016V31.876C18.2223 31.3993 14.7383 29.5914 12.1738 26.7768C9.60923 23.9623 8.13222 20.3256 8.008 16.52L8 16V11.568C8 9.748 9.384 7.868 11.614 7.928C13.082 7.968 15.322 8.264 17.614 9.454C18.1919 8.31186 18.9241 7.25462 19.79 6.312C20.87 5.154 22.338 4 24 4ZM12 11.952V16C12.0004 18.8359 13.0048 21.5802 14.8352 23.7463C16.6656 25.9124 19.2039 27.3606 22 27.834C21.97 20.272 19.894 16.424 17.778 14.434C15.96 12.724 13.868 12.148 12.32 11.98L12 11.954V11.952ZM36 11.992C34.424 12.142 32.156 12.712 30.208 14.566C28.088 16.58 26.03 20.41 26 27.834C28.7125 27.3748 31.185 25.9978 33.0035 23.9334C34.8221 21.8691 35.8764 19.2428 35.99 16.494L36 16V11.992ZM24 8.02C23.5 8.228 23.078 8.65 22.716 9.038C22.06 9.74 21.396 10.718 20.888 11.878C22.104 13.114 23.178 14.682 24.024 16.65C24.872 14.724 25.942 13.184 27.148 11.962C26.6967 10.8889 26.0664 9.90013 25.284 9.038C24.924 8.65 24.5 8.228 24 8.02Z" fill="black"/>
</svg>
