<svg width="48" height="48" viewBox="0 0 48 48" fill="none" xmlns="http://www.w3.org/2000/svg">
<path fill-rule="evenodd" clip-rule="evenodd" d="M30.5601 4C31.3448 4.00031 32.1121 4.23142 32.7664 4.66457C33.4208 5.09771 33.9333 5.71376 34.2401 6.436L34.3541 6.736L41.4581 28.052C41.6011 28.4816 41.6451 28.9379 41.5867 29.3869C41.5283 29.8359 41.369 30.2658 41.1208 30.6445C40.8726 31.0231 40.5419 31.3407 40.1535 31.5734C39.7651 31.8061 39.3291 31.9478 38.8781 31.988L38.6121 32H26.0001V40H32.0001C32.5098 40.0006 33.0001 40.1958 33.3708 40.5457C33.7415 40.8956 33.9646 41.3739 33.9944 41.8828C34.0243 42.3917 33.8587 42.8928 33.5316 43.2837C33.2044 43.6746 32.7403 43.9258 32.2341 43.986L32.0001 44H16.0001C15.4903 43.9994 15 43.8042 14.6293 43.4543C14.2587 43.1044 14.0356 42.6261 14.0057 42.1172C13.9759 41.6083 14.1414 41.1072 14.4686 40.7163C14.7958 40.3254 15.2599 40.0742 15.7661 40.014L16.0001 40H22.0001V32H9.38808C8.93477 32.0003 8.48729 31.8978 8.07926 31.7003C7.67122 31.5028 7.31325 31.2155 7.03223 30.8598C6.75122 30.5041 6.55446 30.0893 6.45675 29.6466C6.35904 29.204 6.36291 28.7449 6.46808 28.304L6.54208 28.052L13.6461 6.736C13.8941 5.99087 14.356 5.33523 14.9741 4.85082C15.5922 4.36642 16.3393 4.07469 17.1221 4.012L17.4401 4H30.5561H30.5601ZM32.0001 32C32.5305 32 33.0392 32.2107 33.4143 32.5858C33.7894 32.9609 34.0001 33.4696 34.0001 34C34.0001 34.5304 33.7894 35.0391 33.4143 35.4142C33.0392 35.7893 32.5305 36 32.0001 36C31.4697 36 30.9609 35.7893 30.5859 35.4142C30.2108 35.0391 30.0001 34.5304 30.0001 34C30.0001 33.4696 30.2108 32.9609 30.5859 32.5858C30.9609 32.2107 31.4697 32 32.0001 32ZM30.5601 8H17.4401L10.7761 28H37.2281L30.5601 8Z" fill="black"/>
</svg>
