<svg width="48" height="48" viewBox="0 0 48 48" fill="none" xmlns="http://www.w3.org/2000/svg">
<path d="M38.325 9.67501C35.4923 6.84472 31.8841 4.9178 27.9565 4.13785C24.0288 3.35789 19.9581 3.75992 16.2589 5.2931C12.5597 6.82628 9.39809 9.42178 7.17375 12.7515C4.94941 16.0812 3.76221 19.9957 3.76221 24C3.76221 28.0043 4.94941 31.9188 7.17375 35.2485C9.39809 38.5782 12.5597 41.1737 16.2589 42.7069C19.9581 44.2401 24.0288 44.6421 27.9565 43.8622C31.8841 43.0822 35.4923 41.1553 38.325 38.325C42.119 34.523 44.2498 29.3712 44.2498 24C44.2498 18.6288 42.119 13.477 38.325 9.67501ZM12.8588 12.8625C15.205 10.5103 18.2389 8.96582 21.5213 8.45251C20.9959 11.7302 19.4493 14.7585 17.102 17.1058C14.7547 19.453 11.7265 20.9996 8.44878 21.525C8.96133 18.2413 10.5059 15.206 12.8588 12.8588V12.8625ZM8.38878 26.0756C12.8939 25.5425 17.0865 23.5021 20.2857 20.2856C23.5021 17.0865 25.5426 12.8939 26.0757 8.38876C29.5072 8.84014 32.6939 10.4114 35.1413 12.8588C37.5886 15.3062 39.1599 18.4928 39.6113 21.9244C35.11 22.4694 30.9214 24.5078 27.7151 27.7138C24.5088 30.9198 22.4699 35.1081 21.9244 39.6094C18.4929 39.1587 15.3061 37.5879 12.8586 35.1408C10.4112 32.6937 8.83993 29.5071 8.38878 26.0756ZM35.1413 35.1413C32.7946 37.4928 29.7609 39.0372 26.4788 39.5513C27.0042 36.2735 28.5507 33.2453 30.898 30.898C33.2453 28.5507 36.2736 27.0042 39.5513 26.4788C39.038 29.7611 37.4934 32.795 35.1413 35.1413Z" fill="black"/>
</svg>
