<svg width="48" height="48" viewBox="0 0 48 48" fill="none" xmlns="http://www.w3.org/2000/svg">
<path fill-rule="evenodd" clip-rule="evenodd" d="M24 5.5C13.786 5.5 5.5 13.802 5.5 24.052C5.5 33.576 12.658 41.422 21.866 42.482C22.79 42.588 23.78 42.202 24.572 41.408C24.9201 41.0593 25.1156 40.5867 25.1156 40.094C25.1156 39.6013 24.9201 39.1287 24.572 38.78C23.948 38.156 23.322 37.32 22.98 36.374C22.63 35.404 22.542 34.186 23.254 33.054C23.9 32.028 24.868 31.478 25.884 31.21C26.864 30.954 27.946 30.938 28.988 31.002C30.0839 31.082 31.1766 31.2014 32.264 31.36C33.378 31.504 34.464 31.638 35.516 31.688C37.664 31.79 39.32 31.52 40.45 30.596C41.534 29.71 42.5 27.914 42.5 24.052C42.5 13.802 34.214 5.5 24 5.5ZM2.5 24.052C2.5 12.152 12.122 2.5 24 2.5C35.878 2.5 45.5 12.152 45.5 24.052C45.5 28.342 44.426 31.22 42.35 32.918C40.322 34.576 37.698 34.796 35.372 34.684C34.1258 34.6104 32.8834 34.4836 31.648 34.304C30.608 34.17 29.668 34.048 28.808 33.996C27.874 33.94 27.166 33.976 26.648 34.112C26.168 34.238 25.936 34.426 25.794 34.652C25.716 34.776 25.662 34.968 25.802 35.354C25.95 35.766 26.274 36.238 26.696 36.662C27.6047 37.5731 28.1149 38.8073 28.1149 40.094C28.1149 41.3807 27.6047 42.6149 26.696 43.526C25.396 44.83 23.536 45.694 21.522 45.462C10.812 44.23 2.5 35.112 2.5 24.052ZM19.17 12.5C18.7722 12.5 18.3906 12.658 18.1093 12.9393C17.828 13.2206 17.67 13.6022 17.67 14C17.67 14.3978 17.828 14.7794 18.1093 15.0607C18.3906 15.342 18.7722 15.5 19.17 15.5C19.5678 15.5 19.9494 15.342 20.2307 15.0607C20.512 14.7794 20.67 14.3978 20.67 14C20.67 13.6022 20.512 13.2206 20.2307 12.9393C19.9494 12.658 19.5678 12.5 19.17 12.5ZM14.67 14C14.67 12.8065 15.1441 11.6619 15.988 10.818C16.8319 9.97411 17.9765 9.5 19.17 9.5C20.3635 9.5 21.5081 9.97411 22.352 10.818C23.1959 11.6619 23.67 12.8065 23.67 14C23.67 15.1935 23.1959 16.3381 22.352 17.182C21.5081 18.0259 20.3635 18.5 19.17 18.5C17.9765 18.5 16.8319 18.0259 15.988 17.182C15.1441 16.3381 14.67 15.1935 14.67 14ZM29 12.5C28.6022 12.5 28.2206 12.658 27.9393 12.9393C27.658 13.2206 27.5 13.6022 27.5 14C27.5 14.3978 27.658 14.7794 27.9393 15.0607C28.2206 15.342 28.6022 15.5 29 15.5C29.3978 15.5 29.7794 15.342 30.0607 15.0607C30.342 14.7794 30.5 14.3978 30.5 14C30.5 13.6022 30.342 13.2206 30.0607 12.9393C29.7794 12.658 29.3978 12.5 29 12.5ZM24.5 14C24.5 12.8065 24.9741 11.6619 25.818 10.818C26.6619 9.97411 27.8065 9.5 29 9.5C30.1935 9.5 31.3381 9.97411 32.182 10.818C33.0259 11.6619 33.5 12.8065 33.5 14C33.5 15.1935 33.0259 16.3381 32.182 17.182C31.3381 18.0259 30.1935 18.5 29 18.5C27.8065 18.5 26.6619 18.0259 25.818 17.182C24.9741 16.3381 24.5 15.1935 24.5 14ZM13 21.5C12.6022 21.5 12.2206 21.658 11.9393 21.9393C11.658 22.2206 11.5 22.6022 11.5 23C11.5 23.3978 11.658 23.7794 11.9393 24.0607C12.2206 24.342 12.6022 24.5 13 24.5C13.3978 24.5 13.7794 24.342 14.0607 24.0607C14.342 23.7794 14.5 23.3978 14.5 23C14.5 22.6022 14.342 22.2206 14.0607 21.9393C13.7794 21.658 13.3978 21.5 13 21.5ZM8.5 23C8.5 21.8065 8.97411 20.6619 9.81802 19.818C10.6619 18.9741 11.8065 18.5 13 18.5C14.1935 18.5 15.3381 18.9741 16.182 19.818C17.0259 20.6619 17.5 21.8065 17.5 23C17.5 24.1935 17.0259 25.3381 16.182 26.182C15.3381 27.0259 14.1935 27.5 13 27.5C11.8065 27.5 10.6619 27.0259 9.81802 26.182C8.97411 25.3381 8.5 24.1935 8.5 23ZM35 21.5C34.6022 21.5 34.2206 21.658 33.9393 21.9393C33.658 22.2206 33.5 22.6022 33.5 23C33.5 23.3978 33.658 23.7794 33.9393 24.0607C34.2206 24.342 34.6022 24.5 35 24.5C35.3978 24.5 35.7794 24.342 36.0607 24.0607C36.342 23.7794 36.5 23.3978 36.5 23C36.5 22.6022 36.342 22.2206 36.0607 21.9393C35.7794 21.658 35.3978 21.5 35 21.5ZM30.5 23C30.5 22.4091 30.6164 21.8239 30.8425 21.2779C31.0687 20.732 31.4002 20.2359 31.818 19.818C32.2359 19.4002 32.732 19.0687 33.2779 18.8425C33.8239 18.6164 34.4091 18.5 35 18.5C35.5909 18.5 36.1761 18.6164 36.7221 18.8425C37.268 19.0687 37.7641 19.4002 38.182 19.818C38.5998 20.2359 38.9313 20.732 39.1575 21.2779C39.3836 21.8239 39.5 22.4091 39.5 23C39.5 24.1935 39.0259 25.3381 38.182 26.182C37.3381 27.0259 36.1935 27.5 35 27.5C33.8065 27.5 32.6619 27.0259 31.818 26.182C30.9741 25.3381 30.5 24.1935 30.5 23Z" fill="black"/>
</svg>
