<svg width="48" height="48" viewBox="0 0 48 48" fill="none" xmlns="http://www.w3.org/2000/svg">
<path d="M33.9 18.02C39.94 19.498 44 22.266 44 25.448C44 30.182 35.04 34 24 34C12.96 34 4 30.182 4 25.448C4 22.268 8.08 19.478 14.14 18" stroke="black" stroke-width="4" stroke-linecap="round" stroke-linejoin="round"/>
<path d="M30 34L34 40M17 34L14 40M24 28H24.02M14 26H14.02M34 26H34.02M14 18C14 20.21 18.478 22 24 22C29.522 22 34 20.21 34 18V17.93C34 12.446 29.522 8 24 8C18.478 8 14 12.446 14 17.93V18Z" stroke="black" stroke-width="4" stroke-linecap="round" stroke-linejoin="round"/>
</svg>
