<svg width="48" height="48" viewBox="0 0 48 48" fill="none" xmlns="http://www.w3.org/2000/svg">
<path d="M45 24C45.0012 24.5093 44.8707 25.0102 44.6209 25.4541C44.3712 25.898 44.0109 26.2697 43.575 26.5331L16.56 43.0594C16.1045 43.3383 15.5829 43.4905 15.0489 43.5004C14.5149 43.5103 13.988 43.3775 13.5225 43.1156C13.0615 42.8578 12.6774 42.4819 12.4098 42.0265C12.1422 41.5711 12.0008 41.0526 12 40.5244V7.47561C12.0008 6.9474 12.1422 6.42892 12.4098 5.9735C12.6774 5.51808 13.0615 5.14214 13.5225 4.88436C13.988 4.62252 14.5149 4.48968 15.0489 4.49957C15.5829 4.50946 16.1045 4.66171 16.56 4.94062L43.575 21.4669C44.0109 21.7302 44.3712 22.102 44.6209 22.5458C44.8707 22.9897 45.0012 23.4907 45 24Z" fill="#6bdaa4"/>
</svg>
