<svg width="48" height="48" viewBox="0 0 48 48" fill="none" xmlns="http://www.w3.org/2000/svg">
<path d="M14.4141 5.08606C14.789 5.46112 14.9996 5.96973 14.9996 6.50006C14.9996 7.03039 14.789 7.53901 14.4141 7.91406L10.8281 11.5001H26.5001C29.6646 11.5001 32.758 12.4384 35.3892 14.1965C38.0204 15.9547 40.0711 18.4535 41.2821 21.3771C42.4931 24.3007 42.81 27.5178 42.1926 30.6215C41.5753 33.7252 40.0514 36.5761 37.8138 38.8138C35.5761 41.0514 32.7252 42.5753 29.6215 43.1926C26.5178 43.81 23.3007 43.4931 20.3771 42.2821C17.4535 41.0711 14.9547 39.0204 13.1965 36.3892C11.4384 33.758 10.5001 30.6646 10.5001 27.5001C10.5001 26.9696 10.7108 26.4609 11.0858 26.0858C11.4609 25.7108 11.9696 25.5001 12.5001 25.5001C13.0305 25.5001 13.5392 25.7108 13.9143 26.0858C14.2893 26.4609 14.5001 26.9696 14.5001 27.5001C14.5001 29.8734 15.2038 32.1935 16.5224 34.1669C17.841 36.1403 19.7151 37.6784 21.9079 38.5866C24.1006 39.4949 26.5134 39.7325 28.8411 39.2695C31.1689 38.8065 33.3071 37.6636 34.9853 35.9853C36.6636 34.3071 37.8065 32.1689 38.2695 29.8411C38.7325 27.5134 38.4949 25.1006 37.5866 22.9079C36.6784 20.7151 35.1403 18.841 33.1669 17.5224C31.1935 16.2038 28.8734 15.5001 26.5001 15.5001H10.8281L14.4141 19.0861C14.7784 19.4633 14.98 19.9685 14.9754 20.4929C14.9709 21.0173 14.7605 21.5189 14.3897 21.8897C14.0189 22.2605 13.5173 22.4709 12.9929 22.4754C12.4685 22.48 11.9633 22.2784 11.5861 21.9141L4.58606 14.9141C4.21112 14.539 4.00049 14.0304 4.00049 13.5001C4.00049 12.9697 4.21112 12.4611 4.58606 12.0861L11.5861 5.08606C11.9611 4.71112 12.4697 4.50049 13.0001 4.50049C13.5304 4.50049 14.039 4.71112 14.4141 5.08606Z" fill="black"/>
</svg>
